<svg xmlns="http://www.w3.org/2000/svg" aria-hidden="true" viewBox="0 0 410 404" width="32" height="32"><path fill="url(#a)" d="M399.641 59.525 215.643 388.545c-3.8 6.793-13.563 6.833-17.418.073L10.582 59.556c-4.2-7.358 2.110-16.288 10.453-14.794l184.024 32.926a10.020 10.020 0 0 0 3.531-.005l180.182-32.875c8.345-1.524 14.692 7.383 10.469 14.757Z"/><path fill="url(#b)" d="M292.965 1.574 156.801 28.255a4.768 4.768 0 0 0-3.852 4.387l-8.376 141.381a4.769 4.769 0 0 0 5.850 4.928l37.910-8.751a4.769 4.769 0 0 1 5.736 5.622l-11.259 55.116a4.768 4.768 0 0 0 6.054 5.546l23.422-7.117a4.768 4.768 0 0 1 6.057 5.555l-17.906 86.663c-1.347 6.524 7.315 10.077 10.992 4.512l2.456-3.718 110.974-221.477c2.252-4.494-1.633-9.587-6.554-8.638l-39.018 7.532a4.768 4.768 0 0 1-5.466-6.004l25.458-88.226c1.349-4.674-2.969-9.078-7.714-7.586Z"/><defs><linearGradient id="a" x1="6.001" x2="235.0" y1="32.999" y2="344.0" gradientUnits="userSpaceOnUse"><stop stop-color="#41D1FF"/><stop offset="1" stop-color="#BD34FE"/></linearGradient><linearGradient id="b" x1="194.0" x2="236.0" y1="8.0" y2="292.0" gradientUnits="userSpaceOnUse"><stop stop-color="#FFEA83"/><stop offset=".083" stop-color="#FFDD35"/><stop offset="1" stop-color="#FFA800"/></linearGradient></defs></svg>
